<svg width="41" height="40" viewBox="0 0 41 40" fill="none" xmlns="http://www.w3.org/2000/svg">
<circle cx="20.5" cy="20.0007" r="19.5" stroke="#384953"/>
<path d="M23.6308 10.0052V8.39206C23.6308 8.2851 23.6717 8.18252 23.7447 8.10689C23.8176 8.03126 23.9166 7.98877 24.0197 7.98877C24.1229 7.98877 24.2218 8.03126 24.2948 8.10689C24.3677 8.18252 24.4087 8.2851 24.4087 8.39206V10.0052C24.4087 10.1122 24.3677 10.2147 24.2948 10.2904C24.2218 10.366 24.1229 10.4085 24.0197 10.4085C23.9166 10.4085 23.8176 10.366 23.7447 10.2904C23.6717 10.2147 23.6308 10.1122 23.6308 10.0052ZM26.9371 11.3714C26.9807 11.3991 27.0292 11.4177 27.0798 11.426C27.1304 11.4343 27.1821 11.4321 27.2318 11.4197C27.2816 11.4072 27.3285 11.3847 27.3699 11.3534C27.4113 11.3221 27.4463 11.2826 27.4729 11.2373L28.2508 9.91548C28.3046 9.82403 28.3211 9.71418 28.2968 9.61009C28.2724 9.506 28.2092 9.41621 28.121 9.36046C28.0328 9.3047 27.9269 9.28756 27.8265 9.3128C27.7261 9.33805 27.6395 9.4036 27.5857 9.49505L26.8077 10.8168C26.7537 10.9078 26.7366 11.0172 26.7603 11.1212C26.784 11.2252 26.8465 11.3151 26.9341 11.3714H26.9371ZM30.9844 13.1085C30.9687 13.0579 30.9436 13.0111 30.9104 12.9706C30.8772 12.9301 30.8366 12.8968 30.791 12.8726C30.7453 12.8485 30.6955 12.8339 30.6445 12.8297C30.5934 12.8256 30.542 12.8319 30.4933 12.8484L29.0259 13.3374C28.9381 13.3673 28.8635 13.4286 28.8154 13.5103C28.7672 13.592 28.7487 13.6888 28.7631 13.7833C28.7775 13.8779 28.8238 13.9641 28.8939 14.0265C28.964 14.0888 29.0531 14.1233 29.1455 14.1238C29.1861 14.1239 29.2264 14.1175 29.2651 14.1046L30.7296 13.6157C30.7782 13.5995 30.8234 13.5736 30.8624 13.5394C30.9014 13.5051 30.9335 13.4633 30.9568 13.4162C30.9802 13.3691 30.9944 13.3177 30.9987 13.2649C31.0029 13.2121 30.997 13.159 30.9815 13.1085H30.9844ZM27.4019 26.7074C27.3659 26.9091 27.3231 27.1107 27.2716 27.3123C26.8899 28.7762 26.0989 30.0901 24.9982 31.0886C23.8975 32.0871 22.5363 32.7254 21.0862 32.9232C19.6361 33.1209 18.1621 32.8692 16.8498 32.1998C15.5374 31.5304 14.4456 30.4732 13.7119 29.1614L10.2869 23.0113C10.0836 22.6465 9.98477 22.2292 10.0019 21.8082C10.019 21.3873 10.1514 20.9801 10.3836 20.6343C10.6158 20.2886 10.9382 20.0185 11.313 19.8558C11.6879 19.693 12.0996 19.6443 12.5002 19.7154L11.8613 18.5751C11.6586 18.2105 11.5601 17.7937 11.5772 17.3733C11.5944 16.9528 11.7266 16.5462 11.9584 16.2007C12.1901 15.8552 12.5119 15.5853 12.8861 15.4223C13.2603 15.2593 13.6715 15.21 14.0717 15.2802L13.6603 14.5422C13.3942 14.0699 13.3057 13.5123 13.412 12.9765C13.5182 12.4408 13.8117 11.9646 14.236 11.6395C14.6603 11.3144 15.1854 11.1633 15.7106 11.2152C16.2358 11.2671 16.724 11.5184 17.0814 11.9208C17.2469 11.4095 17.5877 10.9789 18.0392 10.711C18.5309 10.417 19.1148 10.3369 19.6633 10.488C20.2118 10.6392 20.6802 11.0093 20.9663 11.5175L22.5018 14.27C22.6444 13.8757 22.8922 13.5315 23.2162 13.2775C23.5402 13.0235 23.9271 12.8701 24.3319 12.8353C24.7367 12.8004 25.1427 12.8855 25.5027 13.0806C25.8627 13.2757 26.1618 13.5728 26.3653 13.9373L28.421 17.6243C29.2124 19.0517 29.5405 20.7049 29.357 22.3402C29.1736 23.9756 28.4882 25.5065 27.4019 26.7074ZM23.3254 15.7521L26.5345 21.504C27.1738 22.6451 27.5159 23.939 27.5273 25.2586C28.2068 24.194 28.5873 22.9545 28.6263 21.6786C28.6653 20.4027 28.3612 19.1407 27.7481 18.0337L25.6904 14.3406C25.5099 14.0154 25.2121 13.7779 24.8627 13.6804C24.5133 13.5828 24.1408 13.6331 23.8272 13.8203C23.5136 14.0075 23.2845 14.3162 23.1904 14.6785C23.0963 15.0407 23.1449 15.4269 23.3254 15.7521ZM17.9293 13.3323L20.7047 18.3019C20.8786 17.8187 21.2095 17.4135 21.6404 17.1559C22.0713 16.8982 22.5753 16.8044 23.0658 16.8904L20.2914 11.9208C20.1109 11.5961 19.8133 11.359 19.4641 11.2617C19.115 11.1644 18.7429 11.2149 18.4297 11.4021C18.1164 11.5893 17.8877 11.8978 17.7939 12.2598C17.7001 12.6218 17.7488 13.0076 17.9293 13.3323ZM14.3313 14.1389L15.3037 15.8801C15.4776 15.3971 15.8083 14.9921 16.239 14.7345C16.6698 14.4769 17.1736 14.3829 17.6639 14.4686L16.6963 12.7274C16.6069 12.5667 16.4878 12.4258 16.3459 12.3127C16.204 12.1997 16.042 12.1168 15.8692 12.0686C15.6963 12.0205 15.5161 12.0082 15.3386 12.0323C15.1612 12.0564 14.9901 12.1165 14.835 12.2092C14.68 12.3019 14.5441 12.4253 14.4351 12.5724C14.326 12.7196 14.246 12.8875 14.1996 13.0667C14.1532 13.2459 14.1413 13.4328 14.1646 13.6168C14.1878 13.8008 14.2458 13.9782 14.3352 14.1389H14.3313ZM25.8547 21.9022L23.8914 18.3735C23.8067 18.2101 23.6918 18.0657 23.5533 17.9484C23.4148 17.8311 23.2554 17.7433 23.0842 17.6898C22.7383 17.582 22.3653 17.621 22.0471 17.7983C21.729 17.9755 21.4918 18.2766 21.3878 18.6352C21.2838 18.9938 21.3214 19.3805 21.4924 19.7104L22.7176 21.9022C22.7432 21.9481 22.7598 21.9987 22.7664 22.0513C22.7731 22.1038 22.7697 22.1572 22.7565 22.2083C22.7432 22.2595 22.7204 22.3074 22.6893 22.3495C22.6582 22.3915 22.6194 22.4267 22.5752 22.4532C22.5309 22.4797 22.4821 22.4969 22.4314 22.5038C22.3808 22.5107 22.3293 22.5072 22.28 22.4935C22.2306 22.4798 22.1843 22.4561 22.1438 22.4239C22.1033 22.3916 22.0693 22.3514 22.0437 22.3055L18.4934 15.9537C18.4038 15.793 18.2846 15.6521 18.1425 15.5392C18.0005 15.4263 17.8383 15.3435 17.6653 15.2956C17.4923 15.2478 17.312 15.2358 17.1345 15.2603C16.957 15.2848 16.786 15.3454 16.6311 15.4385C16.3184 15.6253 16.09 15.9331 15.996 16.2944C15.9021 16.6557 15.9504 17.0408 16.1303 17.3652L18.6635 21.9022C18.6892 21.9481 18.7058 21.9988 18.7126 22.0513C18.7193 22.1039 18.716 22.1573 18.7028 22.2085C18.6896 22.2597 18.6668 22.3077 18.6357 22.3498C18.6046 22.3919 18.5658 22.4272 18.5216 22.4537C18.4773 22.4805 18.4283 22.4979 18.3775 22.505C18.3268 22.512 18.2751 22.5086 18.2256 22.495C18.1761 22.4813 18.1296 22.4576 18.089 22.4253C18.0483 22.3929 18.0142 22.3526 17.9887 22.3065L14.8982 16.7603C14.7177 16.4357 14.4202 16.1987 14.0711 16.1015C13.7221 16.0043 13.3501 16.0549 13.037 16.2421C12.7239 16.4292 12.4953 16.7377 12.4016 17.0996C12.3078 17.4615 12.3566 17.8472 12.5371 18.1718L15.9631 24.322C16.0146 24.4147 16.0286 24.525 16.0017 24.6284C15.9749 24.7318 15.9096 24.82 15.8201 24.8735C15.7306 24.9269 15.6243 24.9414 15.5245 24.9136C15.4248 24.8858 15.3398 24.818 15.2882 24.7252L13.319 21.1965C13.1385 20.8717 12.8409 20.6346 12.4917 20.5373C12.1426 20.4401 11.7705 20.4906 11.4572 20.6777C11.144 20.8649 10.9153 21.1734 10.8215 21.5354C10.7277 21.8974 10.7764 22.2832 10.9569 22.608L14.3867 28.7581C15.2636 30.3358 16.7091 31.4876 18.4051 31.9603C19.2449 32.1944 20.1209 32.2547 20.9832 32.1377C21.8454 32.0208 22.677 31.7289 23.4304 31.2787C24.1839 30.8285 24.8444 30.2289 25.3744 29.5141C25.9043 28.7992 26.2933 27.9832 26.519 27.1125C26.7448 26.2418 26.8029 25.3335 26.6901 24.4396C26.5773 23.5456 26.2957 22.6834 25.8615 21.9022H25.8547Z" fill="#384953"/>
</svg>
