<svg width="220" height="134" viewBox="0 0 220 134" fill="none" xmlns="http://www.w3.org/2000/svg">
<path d="M135.839 5.72189C135.021 8.45576 133.725 13.035 132.907 15.8373C130.316 25.2692 128.134 30.4635 124.383 36.4097C122.337 39.622 120.701 42.4926 120.701 42.766C120.701 43.0394 121.382 43.4495 122.269 43.7912C123.496 44.2696 123.837 44.1329 124.11 42.9027C124.383 41.8092 126.02 40.9206 131.611 39.0069C135.567 37.5716 139.453 36.4781 140.34 36.4097L141.84 36.3414V56.8455C141.84 68.1228 141.636 77.3496 141.363 77.3496C141.022 77.3496 139.113 74.6158 136.999 71.2667C133.316 65.5256 133.043 65.1839 128.815 63.4752C126.429 62.5183 117.223 58.4175 108.426 54.4534C99.6291 50.4209 91.8552 47.0035 91.2415 46.7985C90.3549 46.5251 89.1957 48.2338 85.7861 55.0685C83.4675 59.7844 81.2854 63.6802 80.9444 63.6802C80.6716 63.6802 77.8075 62.45 74.6025 60.9463C71.3975 59.4427 68.4652 58.2125 68.1924 58.2125C67.8515 58.2125 64.9874 63.6119 61.7823 70.1732L55.9178 82.0656V96.0084V109.883L46.9164 112.138C36.2784 114.804 25.0266 118.768 17.3891 122.595C10.8426 125.876 0 132.232 0 132.779C0 133.053 3.20504 131.549 7.09201 129.567C25.504 120.067 48.7576 113.847 80.1261 110.02C90.0822 108.858 130.861 108.858 139.794 110.02C161.48 112.958 165.162 113.642 176.959 116.581C192.098 120.408 203.623 124.646 214.261 130.387C217.329 132.027 219.921 133.326 219.989 133.189C220.398 132.779 209.555 125.944 204.645 123.484C193.871 118.085 178.732 113.232 162.639 109.883L155.138 108.311L154.933 76.8029C154.797 49.6007 154.933 45.2265 155.751 45.2265C158.07 45.2265 157.388 43.3811 152.546 36.068C147.432 28.3448 144.568 21.5784 139.658 5.38016C138.84 2.85132 138.021 0.800903 137.749 0.800903C137.544 0.800903 136.658 3.05635 135.839 5.72189ZM99.7655 69.148L108.903 87.26L109.244 95.1199C109.449 99.4257 109.449 103.39 109.312 103.8C109.108 104.347 107.676 104.688 105.289 104.688H101.607V96.6235V88.6269L94.7193 77.8964C89.3321 69.4214 87.3545 66.8925 85.5133 66.004C84.2176 65.3889 83.1947 64.6371 83.1947 64.2953C83.1947 63.1334 89.673 50.6943 90.1504 50.831C90.4231 50.9677 94.7875 59.1693 99.7655 69.148ZM73.4432 72.292L78.3531 81.7922L78.2167 94.0263L78.0803 106.329L68.1924 107.832C62.737 108.653 58.2363 109.268 58.0999 109.131C57.9636 108.994 57.8954 102.706 57.9636 95.1199L58.0317 81.3821L62.6006 71.8819C65.1238 66.6875 67.5105 62.45 67.8514 62.5867C68.2606 62.655 70.7155 67.0292 73.4432 72.292Z" fill="#8B99A2"/>
<path d="M126.425 48.0409C126.055 48.8541 125.686 51.5155 125.686 54.0291C125.686 58.9822 126.351 59.7215 129.604 58.5387C131.452 57.7994 131.6 57.4297 131.6 53.8812C131.6 48.1887 131.008 46.6363 128.938 46.6363C127.977 46.6363 126.868 47.3016 126.425 48.0409Z" fill="#8B99A2"/>
</svg>
