<svg width="21" height="20" viewBox="0 0 21 20" fill="none" xmlns="http://www.w3.org/2000/svg">
<path d="M19.7258 18.3001C19.8187 18.393 19.8924 18.5033 19.9426 18.6247C19.9929 18.7461 20.0188 18.8762 20.0188 19.0076C20.0188 19.139 19.9929 19.2691 19.9426 19.3905C19.8924 19.5119 19.8187 19.6222 19.7258 19.7151C19.6328 19.808 19.5225 19.8817 19.4012 19.932C19.2798 19.9823 19.1497 20.0081 19.0183 20.0081C18.8869 20.0081 18.7568 19.9823 18.6354 19.932C18.514 19.8817 18.4037 19.808 18.3108 19.7151L10.0183 11.4213L1.72576 19.7151C1.53812 19.9027 1.28362 20.0081 1.01826 20.0081C0.752892 20.0081 0.498397 19.9027 0.310756 19.7151C0.123116 19.5274 0.0177002 19.2729 0.0177002 19.0076C0.0177002 18.7422 0.123116 18.4877 0.310756 18.3001L8.60451 10.0076L0.310756 1.71508C0.123116 1.52743 0.0177002 1.27294 0.0177002 1.00758C0.0177002 0.742211 0.123116 0.487716 0.310756 0.300075C0.498397 0.112434 0.752892 0.00701904 1.01826 0.00701904C1.28362 0.00701904 1.53812 0.112434 1.72576 0.300075L10.0183 8.59383L18.3108 0.300075C18.4984 0.112434 18.7529 0.00701904 19.0183 0.00701904C19.2836 0.00701905 19.5381 0.112434 19.7258 0.300075C19.9134 0.487716 20.0188 0.742211 20.0188 1.00758C20.0188 1.27294 19.9134 1.52743 19.7258 1.71508L11.432 10.0076L19.7258 18.3001Z" fill="white"/>
</svg>
