<svg width="45" height="45" viewBox="0 0 45 45" fill="none" xmlns="http://www.w3.org/2000/svg">
<circle cx="22.5" cy="22.5" r="22" stroke="white"/>
<path d="M33.921 14H12.4474C12.3287 14 12.2149 14.0471 12.131 14.131C12.0471 14.2149 12 14.3287 12 14.4474V29.6579C12 30.0138 12.1414 30.3552 12.3931 30.6069C12.6448 30.8586 12.9862 31 13.3421 31H33.0263C33.3823 31 33.7236 30.8586 33.9753 30.6069C34.227 30.3552 34.3684 30.0138 34.3684 29.6579V14.4474C34.3684 14.3287 34.3213 14.2149 34.2374 14.131C34.1535 14.0471 34.0397 14 33.921 14ZM23.1842 23.6822L13.5971 14.8947H32.7713L23.1842 23.6822ZM20.5705 22.5L12.8947 29.536V15.464L20.5705 22.5ZM21.2326 23.1073L22.8822 24.625C22.9647 24.7004 23.0724 24.7423 23.1842 24.7423C23.296 24.7423 23.4037 24.7004 23.4862 24.625L25.1359 23.1129L32.7713 30.1053H13.5971L21.2326 23.1073ZM25.798 22.5L33.4737 15.464V29.536L25.798 22.5Z" fill="white"/>
</svg>
