<svg width="25" height="18" viewBox="0 0 25 18" fill="none" xmlns="http://www.w3.org/2000/svg">
<path d="M24.0189 9.00757C24.0189 9.27278 23.9135 9.52714 23.726 9.71468C23.5384 9.90221 23.2841 10.0076 23.0189 10.0076H1.01886C0.753643 10.0076 0.49929 9.90221 0.311753 9.71468C0.124217 9.52714 0.0188599 9.27278 0.0188599 9.00757C0.0188599 8.74235 0.124217 8.488 0.311753 8.30046C0.49929 8.11293 0.753643 8.00757 1.01886 8.00757H23.0189C23.2841 8.00757 23.5384 8.11293 23.726 8.30046C23.9135 8.488 24.0189 8.74235 24.0189 9.00757ZM1.01886 2.00757H23.0189C23.2841 2.00757 23.5384 1.90221 23.726 1.71467C23.9135 1.52714 24.0189 1.27278 24.0189 1.00757C24.0189 0.742352 23.9135 0.487998 23.726 0.300462C23.5384 0.112925 23.2841 0.00756836 23.0189 0.00756836H1.01886C0.753643 0.00756836 0.49929 0.112925 0.311753 0.300462C0.124217 0.487998 0.0188599 0.742352 0.0188599 1.00757C0.0188599 1.27278 0.124217 1.52714 0.311753 1.71467C0.49929 1.90221 0.753643 2.00757 1.01886 2.00757ZM23.0189 16.0076H1.01886C0.753643 16.0076 0.49929 16.1129 0.311753 16.3005C0.124217 16.488 0.0188599 16.7424 0.0188599 17.0076C0.0188599 17.2728 0.124217 17.5271 0.311753 17.7147C0.49929 17.9022 0.753643 18.0076 1.01886 18.0076H23.0189C23.2841 18.0076 23.5384 17.9022 23.726 17.7147C23.9135 17.5271 24.0189 17.2728 24.0189 17.0076C24.0189 16.7424 23.9135 16.488 23.726 16.3005C23.5384 16.1129 23.2841 16.0076 23.0189 16.0076Z" fill="white"/>
</svg>
