<svg width="30" height="30" viewBox="0 0 30 30" fill="none" xmlns="http://www.w3.org/2000/svg">
<circle cx="15" cy="15" r="14.5" stroke="#384953"/>
<path d="M22.8331 13.882L17.1187 8.1676C17.0388 8.08763 16.9371 8.03315 16.8262 8.01104C16.7154 7.98893 16.6005 8.00019 16.496 8.04339C16.3916 8.08659 16.3023 8.15979 16.2394 8.25373C16.1766 8.34768 16.143 8.45815 16.143 8.57118V11.4534C14.2901 11.6119 12.2436 12.5191 10.56 13.947C8.53284 15.667 7.27068 17.8835 7.00567 20.1878C6.98496 20.367 7.02129 20.5481 7.10948 20.7054C7.19766 20.8627 7.33322 20.9882 7.49686 21.064C7.6605 21.1398 7.84388 21.1621 8.02091 21.1276C8.19793 21.0932 8.35958 21.0038 8.48284 20.8721C9.26857 20.0357 12.0643 17.3906 16.143 17.1578V20C16.143 20.113 16.1766 20.2235 16.2394 20.3174C16.3023 20.4114 16.3916 20.4846 16.496 20.5278C16.6005 20.571 16.7154 20.5822 16.8262 20.5601C16.9371 20.538 17.0388 20.4835 17.1187 20.4035L22.8331 14.6892C22.94 14.582 23 14.4369 23 14.2856C23 14.1343 22.94 13.9891 22.8331 13.882ZM17.2859 18.6207V16.5713C17.2859 16.4198 17.2257 16.2744 17.1185 16.1673C17.0113 16.0601 16.866 15.9999 16.7144 15.9999C14.7087 15.9999 12.7551 16.5235 10.9079 17.5571C9.96712 18.0858 9.09058 18.7215 8.2957 19.4514C8.70999 17.7485 9.7543 16.1292 11.2993 14.8184C12.9579 13.412 14.9823 12.5713 16.7144 12.5713C16.866 12.5713 17.0113 12.511 17.1185 12.4039C17.2257 12.2967 17.2859 12.1514 17.2859 11.9998V9.9512L21.621 14.2856L17.2859 18.6207Z" fill="#384953"/>
</svg>
