<svg width="21" height="21" viewBox="0 0 21 21" fill="none" xmlns="http://www.w3.org/2000/svg">
<path d="M15.0287 13C14.8287 12.9 13.5287 12.3 13.3287 12.2C13.1287 12.1 12.9287 12.1 12.7287 12.3C12.5287 12.5 12.1287 13.1 11.9287 13.3C11.8287 13.5 11.6287 13.5 11.4287 13.4C10.7287 13.1 10.0287 12.7 9.42871 12.2C8.92871 11.7 8.42871 11.1 8.02871 10.5C7.92871 10.3 8.02871 10.1 8.12871 9.99998C8.22871 9.89997 8.32871 9.69998 8.52871 9.59998C8.62871 9.49998 8.72871 9.29998 8.72871 9.19998C8.82871 9.09997 8.82871 8.89998 8.72871 8.79998C8.62871 8.69998 8.12871 7.49998 7.92871 6.99998C7.82871 6.29998 7.62871 6.29998 7.42871 6.29998C7.32871 6.29998 7.12871 6.29998 6.92871 6.29998C6.72871 6.29998 6.42871 6.49998 6.32871 6.59998C5.72871 7.19998 5.42871 7.89998 5.42871 8.69998C5.52871 9.59998 5.82871 10.5 6.42871 11.3C7.52871 12.9 8.92871 14.2 10.6287 15C11.1287 15.2 11.5287 15.4 12.0287 15.5C12.5287 15.7 13.0287 15.7 13.6287 15.6C14.3287 15.5 14.9287 15 15.3287 14.4C15.5287 14 15.5287 13.6 15.4287 13.2C15.4287 13.2 15.2287 13.1 15.0287 13ZM17.5287 3.89998C13.6287 -2.43187e-05 7.32871 -2.43187e-05 3.42871 3.89998C0.228711 7.09998 -0.371289 12 1.82871 15.9L0.428711 21L5.72871 19.6C7.22871 20.4 8.82871 20.8 10.4287 20.8C15.9287 20.8 20.3287 16.4 20.3287 10.9C20.4287 8.29997 19.3287 5.79998 17.5287 3.89998ZM14.8287 17.9C13.5287 18.7 12.0287 19.2 10.4287 19.2C8.92871 19.2 7.52871 18.8 6.22871 18.1L5.92871 17.9L2.82871 18.7L3.62871 15.7L3.42871 15.4C1.02871 11.4 2.22871 6.39998 6.12871 3.89998C10.0287 1.39998 15.0287 2.69998 17.4287 6.49998C19.8287 10.4 18.7287 15.5 14.8287 17.9Z" fill="#F0F0F0"/>
</svg>
