<svg width="30" height="30" viewBox="0 0 30 30" fill="none" xmlns="http://www.w3.org/2000/svg">
<rect x="0.5" y="0.5" width="29" height="29" rx="14.5" fill="none"/>
<rect x="0.5" y="0.5" width="29" height="29" rx="14.5" stroke="#384953"/>
<path d="M20.7801 15.5145L13.2809 22.7869C13.2112 22.8544 13.1285 22.908 13.0375 22.9446C12.9464 22.9812 12.8489 23 12.7503 23C12.6518 23 12.5542 22.9812 12.4632 22.9446C12.3722 22.908 12.2894 22.8544 12.2198 22.7869C12.1501 22.7193 12.0948 22.6391 12.0571 22.5508C12.0194 22.4625 12 22.3679 12 22.2724C12 22.1768 12.0194 22.0822 12.0571 21.9939C12.0948 21.9056 12.1501 21.8254 12.2198 21.7578L19.1893 15L12.2198 8.24216C12.0791 8.1057 12 7.92062 12 7.72764C12 7.53466 12.0791 7.34958 12.2198 7.21312C12.3605 7.07666 12.5513 7 12.7503 7C12.9493 7 13.1402 7.07666 13.2809 7.21312L20.7801 14.4855C20.8498 14.553 20.9051 14.6332 20.9428 14.7215C20.9806 14.8098 21 14.9044 21 15C21 15.0956 20.9806 15.1902 20.9428 15.2785C20.9051 15.3668 20.8498 15.447 20.7801 15.5145Z" fill="#384953"/>
</svg>
