<svg width="221" height="134" viewBox="0 0 221 134" fill="none" xmlns="http://www.w3.org/2000/svg">
<path d="M99.4883 2.32822C99.1565 3.46715 98.3822 7.90895 97.7185 12.3508C97.0548 16.9065 95.6169 21.6899 94.2895 23.5122C91.9666 26.8151 92.1878 29.3207 94.6213 26.8151C96.6124 24.765 98.8247 25.2206 98.8247 27.7262C98.8247 28.8652 97.8291 30.4597 96.6124 31.143C94.0683 32.5097 93.6258 36.8376 95.9487 36.8376C97.8291 36.8376 98.8247 39.3433 98.8247 43.899C98.8247 46.7463 97.0548 49.0241 88.0951 57.9077C82.122 63.7163 75.5957 69.8665 73.6047 71.5748C71.6136 73.2832 70.1757 74.8777 70.3969 75.2194C70.7287 75.4472 77.5868 72.3721 85.6616 68.272C93.847 64.0579 100.816 60.7551 101.258 60.7551C101.811 60.7551 102.032 71.1193 101.922 83.7613L101.59 106.882L91.0817 107.565C60.7735 109.615 23.4966 119.182 6.2408 129.318C-0.72788 133.305 -1.61279 134.671 5.02404 131.254C14.9793 126.015 43.7389 117.701 59.5567 115.537C106.457 109.045 156.123 111.893 192.293 123.054C201.474 125.902 210.213 128.977 211.872 129.774C216.075 132.052 220.5 133.646 220.5 133.077C220.5 132.052 203.244 123.624 194.727 120.549C190.081 118.84 178.577 115.765 169.286 113.715L152.472 110.184L151.588 89.1143L150.703 68.1581L143.734 55.0604C134.774 38.2044 126.368 22.715 125.814 22.1455C125.483 21.8038 121.943 24.9928 117.85 29.2068C113.758 33.4209 109.886 36.8376 109.112 36.8376C108.337 36.8376 108.116 35.0154 108.448 31.8264C108.891 27.954 108.559 26.1318 106.678 23.6261C105.351 21.6899 103.802 16.4509 102.807 10.8702C101.148 0.733719 100.484 -0.974655 99.4883 2.32822ZM129.907 48.4547C130.35 51.1881 130.792 55.516 130.903 58.2494C130.903 62.919 130.792 63.1468 127.916 62.8051C124.819 62.4634 124.819 62.3496 124.487 53.5798C124.045 40.5961 127.695 37.0654 129.907 48.4547ZM134.774 79.3195C137.982 82.1668 138.756 88.0892 136.544 92.4172C135.88 93.67 135.327 97.6562 135.327 101.073V107.451H127.584H119.841V101.301C119.841 97.9979 119.067 93.3283 118.071 90.9366C116.08 86.0392 117.297 81.2557 121.39 78.4084C124.93 75.7889 131.345 76.2444 134.774 79.3195Z" fill="#8B99A2"/>
<path d="M90.4177 74.6499C89.8646 75.4472 89.3116 80.5723 89.0903 86.0392C88.6479 95.6061 88.6479 96.0617 90.9708 96.0617C93.183 96.0617 93.2937 95.4922 93.2937 85.3558C93.2937 75.1055 92.2981 71.4609 90.4177 74.6499Z" fill="#8B99A2"/>
<path d="M74.0475 84.7863C73.7156 86.7225 73.3838 91.1643 73.3838 94.4672C73.3838 99.7063 73.7156 100.617 75.4855 100.617C76.5916 100.617 77.919 99.8202 78.2508 98.7951C79.1357 96.5173 79.1357 87.1781 78.2508 83.7613C77.2553 80.1168 74.9324 80.6862 74.0475 84.7863Z" fill="#8B99A2"/>
</svg>
